<?xml version="1.0" encoding="UTF-8"?><svg xmlns="http://www.w3.org/2000/svg" viewBox="0 0 244 244"><defs><style>.cls-1{fill:#ea0a1e;}.cls-2{fill:#fff;}.cls-3{fill:#f5f5f5;opacity:.5;}</style></defs><g id="BG_FFFFFF_"><rect class="cls-2" y="0" width="244" height="244"/></g><g id="BG_F6F6F6_"><rect class="cls-3" y="0" width="244" height="244"/></g><g id="LOGOS"><path class="cls-1" d="m168.371,176.867l2.84-7.448,2.835,7.448h-5.675Zm5.788-11.677h-5.898l-8.242,20.195h5.109l1.877-4.928h8.408l1.878,4.928h5.107l-8.24-20.195Zm-41.599,16.684c-3.328,0-6.022-3.003-6.022-6.709s2.693-6.711,6.022-6.711,6.02,3.005,6.02,6.711-2.698,6.709-6.02,6.709m0-17.376c-5.892,0-10.668,4.776-10.668,10.667s4.777,10.665,10.668,10.665,10.667-4.774,10.667-10.665-4.778-10.667-10.667-10.667m-42.089,17.376c-3.323,0-6.018-3.003-6.018-6.709s2.695-6.711,6.018-6.711,6.022,3.005,6.022,6.711-2.696,6.709-6.022,6.709m0-17.376c-5.89,0-10.662,4.776-10.662,10.667s4.772,10.665,10.662,10.665,10.666-4.774,10.666-10.665-4.776-10.667-10.666-10.667m26.364.692l-5.226,8.171-5.23-8.171h-5.111l8.09,12.664v7.53h4.499v-7.529l8.09-12.666h-5.111Zm44.26,0h-17.264v3.872h6.394v16.322h4.504v-16.322h6.366v-3.872Zm-99.493,3.872h6.396v16.322h4.502v-16.322h6.368v-3.872h-17.266v3.872Z"/><path class="cls-1" d="m114.485,105.408c0-.319.005-.635.012-.95-8.738-1.304-15.006-4.851-15.006-9.024,0-.188.014-.375.039-.561-2.228,2.674-3.504,5.783-3.504,9.1,0,9.46,10.368,17.222,23.587,18.03-2.975-2.266-5.127-8.837-5.127-16.596Z"/><path class="cls-1" d="m121.894,92.561c-1.974,0-3.659,3.066-4.34,7.395,1.389.125,2.841.195,4.34.195s2.95-.069,4.337-.195c-.68-4.329-2.366-7.395-4.337-7.395Z"/><path class="cls-1" d="m121.894,104.992c-1.596,0-3.153-.072-4.655-.207.12,6.168,2.158,11.075,4.655,11.075s4.533-4.908,4.654-11.075c-1.503.135-3.058.207-4.654.207Z"/><path class="cls-1" d="m114.902,99.63c1.013-6.795,3.761-11.665,6.992-11.665s5.977,4.871,6.99,11.665c6.153-.96,10.453-3.146,10.453-5.693,0-3.431-7.809-6.213-17.443-6.213s-17.444,2.782-17.444,6.213c0,2.546,4.3,4.732,10.453,5.693Z"/><path class="cls-1" d="m144.294,95.434c0,4.173-6.269,7.72-15.005,9.024.007.315.01.631.01.95,0,7.759-2.152,14.33-5.125,16.596,13.216-.808,23.584-8.57,23.584-18.03,0-3.317-1.277-6.426-3.504-9.1.025.186.04.373.04.561Z"/><path class="cls-1" d="m81.51,64.306v80.764h80.764v-80.764h-80.764Zm40.384,59.979c-16.729,0-30.288-8.774-30.288-19.594,0-7.691,6.85-14.347,16.819-17.552,3.749-1.205,8.413-1.917,13.469-1.917s9.72.712,13.467,1.917c9.968,3.207,16.818,9.861,16.818,17.552,0,10.821-13.56,19.594-30.285,19.594Z"/></g></svg>